# xmcd CD database file
#
# Track frame offsets:
#	150
#	18765
#	36025
#	48073
#	64678
#	82733
#	97223
#	111590
#	127878
#	142748
#
# Disc length: 2120 seconds
#
# Revision: 3
# Processed by: cddbd v1.5.2PL0 Copyright (c) Steve Scherf et al.
# Submitted via: CDex 1.51
#
DISCID=7408460a
DTITLE=Trisha Yearwood - Trisha Yearwood
DYEAR=1991
DGENRE=Country
TTITLE0=She's In Love With The Boy
TTITLE1=The Woman Before Me
TTITLE2=That's What I Like About You
TTITLE3=Like We Never Had A Broken Heart
TTITLE4=Fools Like Me
TTITLE5=Victim Of The Game
TTITLE6=When Goodbye Was A Word
TTITLE7=The Whisper Of Your Heart
TTITLE8=You Done Me Wrong (And That Ain't Right)
TTITLE9=Lonesome Dove
EXTD=YEAR: 1991
EXTT0=
EXTT1=
EXTT2=
EXTT3=
EXTT4=
EXTT5=
EXTT6=
EXTT7=
EXTT8=
EXTT9=
PLAYORDER=
